<svg xmlns="http://www.w3.org/2000/svg" xmlns:xlink="http://www.w3.org/1999/xlink" version="1.1" id="Layer_1" x="0px" y="0px" viewBox="0 0 400 243.9" style="enable-background:new 0 0 400 243.9;" xml:space="preserve" fill="currentColor"> 
    <style type="text/css"> .st0{fill:#EF824F;} </style>
    <g> 
        <g> 
            <path class="st0" d="M101.7,88.8l-18.7,52.9L64.5,88.8H45.2l29.1,77.3h16.5l29.6-77.3H101.7z" fill="currentColor">
            </path> 
            <path class="st0" d="M138.5,88.9v77.3h17.3V88.9H138.5z" fill="currentColor">
            </path> 
            <path class="st0" d="M178,88.9l0,15.8h32.5l-33.3,49.5v11.9h55v-15.6h-33.4l32.7-49.1V88.9H178z" fill="currentColor">
            </path> 
            <path class="st0" d="M271.3,88.9c-5,0-8.9,0.8-12.8,4.7c-3.8,3.8-5.7,8.4-5.7,13.7v58.8H270v-56.1c0-1.5,0.5-2.7,1.6-3.7 c0.9-0.9,2.9-1.6,4.7-1.6h14.4V88.9H271.3z" fill="currentColor">
            </path> <path class="st0" d="M307.5,65.4v81.7c0,5.2,1.9,9.8,5.5,13.5c3.9,3.9,7.6,5.5,12.6,5.5h19v-15.6h-14.2c-1.4,0-2.6-0.5-3.6-1.5 c-1-1-1.5-2.2-1.5-3.6v-40.7h19.3V88.9h-19.3V65.4H307.5z" fill="currentColor">
            </path> </g> <g> <g> <path class="st0" d="M0,121.9c0,45.9,15.5,88.2,41.5,122l6.2-18.3C29.4,198.8,18,166.9,16,132.5L0,121.9z" fill="currentColor">
            </path> </g> <g> <path class="st0" d="M400,122c0-45.9-15.5-88.2-41.5-122l-6.2,18.2C370.6,45.1,382,77,384,111.4L400,122z" fill="currentColor">
            </path> 
            </g> 
        </g> 
    </g> 
</svg> 